# xmcd
#
# Track frame offsets:
# 150
# 21650
# 42529
# 62719
# 93511
# 115151
# 134605
# 155238
# 176628
# 194080
#
# Disc length: 2849 seconds
#
#
# Revision: 0
# Processed by: cddbd v1.5.2PL0 Copyright (c) Steve Scherf et al.
# Submitted via: Nero 7, 11, 10, 0 
#
DISCID=9d0b1f0a
DTITLE=Rockin' Dopsie - In New Orleans
DYEAR=1984
DGENRE=Blues
TTITLE0=Ay-Tete-Fee
TTITLE1=O, O, Ba, Ba
TTITLE2=Tous Demandaient Pour Toi
TTITLE3=I'm In The Mood For Love
TTITLE4=Lucille
TTITLE5=Please Don't Leave Me
TTITLE6=The Louisiana Two-Step
TTITLE7=Keep A Knockin'
TTITLE8=Allons A Lafayette
TTITLE9=I Got A Woman
EXTD=
EXTT0=Ay-Tete-Fee
EXTT1=O, O, Ba, Ba
EXTT2=Tous Demandaient Pour Toi
EXTT3=I'm In The Mood For Love
EXTT4=Lucille
EXTT5=Please Don't Leave Me
EXTT6=The Louisiana Two-Step
EXTT7=Keep A Knockin'
EXTT8=Allons A Lafayette
EXTT9=I Got A Woman
PLAYORDER=
